<svg width="83" height="34" viewBox="0 0 83 34" fill="none" xmlns="http://www.w3.org/2000/svg">
<g clip-path="url(#clip0_775_2360)">
<path d="M19.1391 26.8202C17.3065 26.8202 15.8938 26.3823 14.9008 25.5066C13.9079 24.6308 13.2548 23.4524 12.9283 21.9714L13.5214 22.1517L13.2615 22.7248C12.9416 23.3494 12.4485 23.974 11.7954 24.6115C11.1423 25.249 10.3493 25.7706 9.43635 26.1892C8.51672 26.6077 7.54378 26.8202 6.49753 26.8202C4.78489 26.8202 3.46542 26.4661 2.51913 25.7577C1.57951 25.0494 0.919775 24.1028 0.546592 22.918C0.173408 21.7331 -0.0131836 20.4066 -0.0131836 18.9513V9.43386C-0.0131836 8.90583 0.16008 8.46795 0.506608 8.12022C0.853135 7.7725 1.29962 7.59863 1.84607 7.59863C2.39252 7.59863 2.839 7.7725 3.18553 8.12022C3.53206 8.46795 3.70532 8.90583 3.70532 9.43386V18.9126C3.70532 19.7498 3.82527 20.5161 4.05851 21.2115C4.29175 21.907 4.70492 22.4608 5.28469 22.8793C5.86446 23.2979 6.66413 23.5104 7.68372 23.5104C8.70332 23.5104 9.54298 23.2979 10.2827 22.8793C11.029 22.4608 11.6088 21.9005 12.0286 21.2115C12.4485 20.5161 12.6617 19.7498 12.6617 18.9126V9.43386C12.6617 8.90583 12.835 8.46795 13.1815 8.12022C13.528 7.7725 13.9745 7.59863 14.521 7.59863C15.0674 7.59863 15.5139 7.7725 15.8604 8.12022C16.207 8.46795 16.3802 8.90583 16.3802 9.43386V18.9513C16.3802 19.7884 16.5002 20.5483 16.7334 21.2308C16.9667 21.9134 17.3732 22.4608 17.9396 22.8858C18.5127 23.3043 19.3057 23.5168 20.3186 23.5168C21.3316 23.5168 22.1379 23.3043 22.8843 22.8858C23.6307 22.4672 24.2038 21.9134 24.6103 21.2308C25.0168 20.5483 25.2233 19.7884 25.2233 18.9513V9.43386C25.2233 8.90583 25.4033 8.46795 25.7631 8.12022C26.123 7.7725 26.5628 7.59863 27.0826 7.59863C27.6024 7.59863 28.0822 7.7725 28.4421 8.12022C28.8019 8.46795 28.9818 8.90583 28.9818 9.43386V24.663C28.9818 25.1911 28.8019 25.6289 28.4421 25.9767C28.0822 26.3244 27.629 26.4983 27.0826 26.4983C26.5362 26.4983 26.123 26.3244 25.7631 25.9767C25.4033 25.6289 25.2233 25.1911 25.2233 24.663V22.5445L25.9297 22.1517C25.7565 22.6797 25.4699 23.2142 25.0767 23.768C24.6836 24.3153 24.1771 24.824 23.5707 25.2748C22.9643 25.732 22.2912 26.099 21.5448 26.3888C20.7985 26.6786 19.9988 26.8202 19.1258 26.8202H19.1391Z" fill="#FAFAFA"/>
<path d="M37.165 8.30675C36.8185 7.95902 36.372 7.78516 35.8256 7.78516C35.2791 7.78516 34.8659 7.95902 34.5061 8.30675C34.1462 8.65447 33.9663 9.09235 33.9663 9.62038V24.9912C33.9663 25.5192 34.1396 25.9571 34.4861 26.3049C34.8326 26.6526 35.2791 26.8264 35.8256 26.8264C36.372 26.8264 36.8185 26.6526 37.165 26.3049C37.5116 25.9571 37.6848 25.5192 37.6848 24.9912V9.61394C37.6848 9.08591 37.5116 8.64804 37.165 8.30031V8.30675Z" fill="#FAFAFA"/>
<path d="M52.7787 7.49512C54.538 7.49512 55.9041 7.84928 56.8704 8.55762C57.8366 9.26595 58.5097 10.2125 58.8962 11.3974C59.2827 12.5822 59.4693 13.9088 59.4693 15.3641V24.991C59.4693 25.519 59.2894 25.9569 58.9295 26.3046C58.5697 26.6523 58.1299 26.8262 57.6101 26.8262C57.0903 26.8262 56.6105 26.6523 56.2506 26.3046C55.8908 25.9569 55.7108 25.519 55.7108 24.991V15.4027C55.7108 14.5398 55.5842 13.7671 55.3377 13.0845C55.0911 12.4019 54.6713 11.8546 54.0715 11.4489C53.4784 11.0432 52.6321 10.8372 51.5458 10.8372C50.5262 10.8372 49.6399 11.0432 48.8669 11.4489C48.1006 11.8546 47.5008 12.4019 47.061 13.0845C46.6278 13.7671 46.4079 14.5398 46.4079 15.4027V24.991C46.4079 25.519 46.228 25.9569 45.8681 26.3046C45.5083 26.6523 45.0684 26.8262 44.5487 26.8262C44.0289 26.8262 43.5491 26.6523 43.1892 26.3046C42.8293 25.9569 42.6494 25.519 42.6494 24.991V9.76178C42.6494 9.23375 42.8293 8.79587 43.1892 8.44815C43.5491 8.10042 44.0022 7.92656 44.5487 7.92656C45.0951 7.92656 45.5083 8.10042 45.8681 8.44815C46.228 8.79587 46.4079 9.23375 46.4079 9.76178V11.7709L45.7415 12.1315C45.9148 11.6035 46.2213 11.069 46.6545 10.5345C47.0876 9.9936 47.6141 9.49133 48.2338 9.02769C48.8536 8.55762 49.5466 8.19057 50.313 7.91368C51.0794 7.63678 51.899 7.50156 52.7654 7.50156L52.7787 7.49512Z" fill="#FAFAFA"/>
<path d="M82.4737 8.15837C82.1272 7.81065 81.6807 7.63678 81.1342 7.63678C80.5878 7.63678 80.1413 7.81709 79.7948 8.17769C79.4482 8.5383 79.275 8.96974 79.275 9.47201V10.0838C79.275 10.2254 79.0884 10.2963 78.9951 10.1868C78.7085 9.87769 78.3753 9.5686 77.9955 9.27239C77.3358 8.75724 76.5627 8.33224 75.6698 7.99739C74.7768 7.66254 73.8105 7.49512 72.7709 7.49512C71.0583 7.49512 69.5122 7.92012 68.1261 8.77012C66.74 9.62012 65.6405 10.7792 64.8341 12.2538C64.0278 13.7285 63.6279 15.422 63.6279 17.3345C63.6279 19.247 64.0278 20.947 64.8341 22.4152C65.6405 23.8898 66.74 25.0489 68.1394 25.8989C69.5389 26.7489 71.1183 27.1739 72.8775 27.1739C73.7172 27.1739 74.5435 27.0387 75.3499 26.7618C76.1562 26.4849 76.8626 26.1307 77.469 25.6993C78.0755 25.2678 78.5753 24.7978 78.9751 24.2826L79.275 23.8963V25.7701C79.275 27.2769 78.7685 28.4747 77.7489 29.3633C76.736 30.2455 75.2433 30.6898 73.2907 30.6898C70.7917 30.6898 68.3194 29.8398 65.9803 28.9447C65.827 28.8868 65.6871 29.0671 65.7937 29.1894C66.4401 29.9493 67.2398 30.5932 68.1328 31.0633C68.2861 31.147 68.2194 31.366 68.0462 31.3595C67.1732 31.3209 66.3069 31.1792 65.4605 30.9538C65.2873 30.9088 65.174 31.1277 65.3206 31.2307C66.0003 31.7201 66.78 32.0936 67.5997 32.3125C67.7729 32.3576 67.7529 32.5959 67.573 32.6216C67.2598 32.6603 66.9466 32.6925 66.6334 32.7311C66.4668 32.7504 66.4335 32.9758 66.6001 33.0338C68.7592 33.7872 70.905 33.9997 73.2507 33.9932C75.01 33.9932 76.6294 33.6906 78.1021 33.0981C79.5749 32.4993 80.761 31.5591 81.654 30.2777C82.547 28.9963 82.9935 27.3478 82.9935 25.3387V9.47201C82.9935 8.94398 82.8202 8.5061 82.4737 8.15837ZM78.6486 20.6959C78.1288 21.6875 77.4091 22.4667 76.4961 23.0334C75.5765 23.5936 74.5236 23.8769 73.3374 23.8769C72.1512 23.8769 71.0583 23.5872 70.1386 23.0141C69.219 22.441 68.506 21.6618 67.9862 20.6766C67.4664 19.6978 67.2065 18.5838 67.2065 17.3345C67.2065 16.0853 67.4664 14.9777 67.9862 13.9925C68.506 13.0137 69.2257 12.2409 70.1386 11.6743C71.0583 11.1141 72.1179 10.8307 73.3374 10.8307C74.5569 10.8307 75.5831 11.1141 76.4961 11.6743C77.4157 12.2345 78.1288 13.0072 78.6486 13.9925C79.1684 14.9713 79.4283 16.0853 79.4283 17.3345C79.4283 18.5838 79.1684 19.6978 78.6486 20.6894V20.6959Z" fill="#FAFAFA"/>
<path d="M9.82941 2.06061C9.82941 0.920833 8.87646 0 7.69693 0C6.5174 0 5.56445 0.920833 5.56445 2.06061C5.56445 3.20038 6.5174 4.12121 7.69693 4.12121C8.87646 4.12121 9.82941 3.20038 9.82941 2.06061Z" fill="#FAFAFA"/>
<path d="M23.0242 2.06061C23.0242 0.920833 22.0713 0 20.8918 0C19.7122 0 18.7593 0.920833 18.7593 2.06061C18.7593 3.20038 19.7122 4.12121 20.8918 4.12121C22.0713 4.12121 23.0242 3.20038 23.0242 2.06061Z" fill="#FAFAFA"/>
</g>
<defs>
<clipPath id="clip0_775_2360">
<rect width="83" height="34" fill="white"/>
</clipPath>
</defs>
</svg>
